
		<svg xmlns="http://www.w3.org/2000/svg" xmlns:xlink="http://www.w3.org/1999/xlink" version="1.1" width="3300" height="2310">
			
			<g transform="scale(15) translate(10, 10)">
				<defs id="SvgjsDefs6343"/><g id="SvgjsG6344" featureKey="root" fill="#fff"/><g id="SvgjsG6345" featureKey="symbol1" fill="#fff" transform="matrix(0.5409723749111695,0,0,0.5409723749111695,68.06438701651592,-8.114584591844622)"><g id="SvgjsG6346"><path xmlns="http://www.w3.org/2000/svg" d="M110,67.7l-2.5-6.9c-0.8-2.3-2.9-3.8-5.2-3.9l-9.7-0.3l-1.6-4.3c-0.5-1.5-1.7-2.7-3.1-3.3c-1.4-0.6-2.8-0.6-4.2,0  c-0.5,0.2-1,0.5-1.4,0.9c-0.6-1-1.5-1.8-2.5-2.2c-1.4-0.6-2.8-0.6-4.2,0c0,0,0,0,0,0c-0.2-3.9-2.2-7.5-5.4-9.7  c-0.1,0-0.1-0.1-0.2-0.1l-0.4-0.2c1.8-2.5,2.9-5.7,2.9-9.3c0-7.9-5.1-13.4-12.5-13.4s-12.5,5.5-12.5,13.4c0,3.6,1.1,6.9,2.9,9.3  L50,37.9c-0.1,0-0.1,0.1-0.2,0.1c-3.2,2.2-5.2,5.8-5.4,9.7c0,0,0,0,0,0c-1.4-0.6-2.9-0.6-4.2,0c-1.1,0.5-1.9,1.2-2.5,2.2  c-0.4-0.3-0.9-0.6-1.4-0.9c-1.4-0.6-2.9-0.6-4.2,0c-1.4,0.6-2.5,1.8-3,3.3l-1.6,4.3l-9.8,0.3c-2.3,0.1-4.4,1.6-5.2,3.9L10,67.7  c-0.8,2.3-1.1,4.7-0.7,7.2c0.8,5.3,3.3,10.2,7,13.8c0.8,0.7,1,1.9,0.6,3l-0.3,0.8c-0.4,1,0.1,2.2,1.2,2.6c0.2,0.1,0.5,0.1,0.7,0.1  c0.8,0,1.6-0.5,1.9-1.3l0.3-0.8c0.9-2.5,0.3-5.4-1.6-7.3c-3.1-3-5.1-7.1-5.8-11.5c-0.3-1.7-0.1-3.5,0.5-5.2l2.5-6.9  c0.3-0.7,0.9-1.2,1.6-1.2l10.4-0.3c0.3,0,0.4,0.1,0.5,0.2c0.2,0.2,0.3,0.5,0.3,0.8c0,1.1-0.6,2-1.4,2.5c-2.3-0.8-4.6-1.3-7-1.3  c-1.1-0.1-2,0.8-2.1,1.9c0,1.1,0.8,2,1.9,2.1c2.4,0.1,4.7,0.6,6.9,1.5c4,1.7,7.3,4.6,9.6,8.5l1.6,2.7c2,3.2,3,3.8,5.8,4.9  c0.4,0.1,0.8,0.3,1.2,0.5c0.3,0.1,0.5,0.2,0.8,0.2c0.8,0,1.5-0.5,1.8-1.2c0.4-1,0-2.2-1.1-2.6c-0.5-0.2-0.9-0.4-1.3-0.5  c-1.4-0.6-2.1-0.8-2.7-1.6l8.6,3.2c0.2,1.2,0.1,2.4-0.4,3.5l-1.4,3.9c-0.9,2.5-2.9,4.3-5.3,4.8c-1.2,0.3-2.1,1.1-2.5,2.3l-2.1,5.6  c-0.4,1,0.1,2.2,1.2,2.6c0.2,0.1,0.5,0.1,0.7,0.1c0.8,0,1.6-0.5,1.9-1.3l2-5.4c3.6-0.9,6.5-3.6,7.9-7.3l1.4-3.9  c0.4-1.2,0.7-2.4,0.7-3.7c0.1,0,0.2,0,0.2,0c1.4,0,2.7-0.5,3.8-1.4c1,0.9,2.4,1.4,3.8,1.4c0.1,0,0.2,0,0.2,0c0,1.2,0.2,2.5,0.7,3.7  l1.4,3.9c1.4,3.7,4.3,6.4,7.9,7.3l2,5.4c0.3,0.8,1.1,1.3,1.9,1.3c0.2,0,0.5,0,0.7-0.1c1-0.4,1.6-1.5,1.2-2.6l-2.1-5.6  c-0.4-1.2-1.4-2-2.5-2.3c-2.4-0.5-4.4-2.4-5.3-4.8l-1.4-3.9c-0.4-1.1-0.5-2.3-0.4-3.5l8.6-3.2c-0.6,0.7-1.3,1-2.7,1.6  c-0.4,0.2-0.8,0.3-1.3,0.5c-1,0.4-1.5,1.6-1.1,2.6c0.3,0.8,1.1,1.2,1.8,1.2c0.3,0,0.5-0.1,0.8-0.2c0.5-0.2,0.9-0.4,1.2-0.5  c2.8-1.1,3.8-1.7,5.8-4.9l1.6-2.7c2.3-3.8,5.7-6.8,9.6-8.5c0,0,0,0,0,0l0,0c2.2-0.9,4.5-1.4,6.9-1.5c1.1,0,2-1,1.9-2.1  c0-1.1-1-2-2.1-1.9c-2.4,0.1-4.8,0.5-7,1.3c-0.8-0.5-1.3-1.5-1.4-2.5c0-0.3,0.1-0.6,0.3-0.8c0.1-0.1,0.3-0.3,0.5-0.2l10.4,0.3  c0.7,0,1.3,0.5,1.6,1.2l2.5,6.9c0.6,1.6,0.8,3.4,0.5,5.2c-0.7,4.4-2.7,8.5-5.8,11.5c-1.9,1.9-2.5,4.7-1.6,7.2l0.3,0.8  c0.3,0.8,1.1,1.3,1.9,1.3c0.2,0,0.5,0,0.7-0.1c1-0.4,1.6-1.5,1.2-2.6l-0.3-0.8c-0.4-1-0.1-2.3,0.7-3c3.7-3.6,6.2-8.5,7-13.8  C111.1,72.4,110.8,70,110,67.7z M77.1,51.4c0.4-0.2,0.8-0.1,1.1,0c0.4,0.2,0.7,0.5,0.9,1L83,63.1c-1.2-1.3-2.7-2.3-4.4-2.8l-2.4-6.5  C75.9,52.8,76.3,51.7,77.1,51.4z M60,18.9c5.1,0,8.5,3.8,8.5,9.4c0,2.3-0.6,4.4-1.6,6c-0.2-3.4-3.2-6-6.9-6c-3.7,0-6.8,2.7-6.9,6  c-1-1.7-1.6-3.7-1.6-6C51.5,22.7,54.9,18.9,60,18.9z M63,34.7c0,1.3-1.3,2.4-3,2.4s-3-1.1-3-2.4s1.3-2.4,3-2.4S63,33.4,63,34.7z   M48.4,56.4v-4v-4.1c0-2.8,1.3-5.4,3.6-7l1.4-0.8c1.9,1.3,4.1,2,6.5,2c2.4,0,4.7-0.7,6.5-2l1.4,0.8c2.3,1.6,3.6,4.2,3.6,7v4.1v4v4.4  L71.3,61l-9,5.7c0,0-0.1,0.1-0.2,0C62,66.6,62,66.5,62,66.5c0-1.3,0.6-2.5,1.7-3.2l4.5-3.2c0.5-0.4,0.8-1,0.8-1.6v-5.2v-2.9  c0-1.1-0.9-2-2-2s-2,0.9-2,2v7.1L61.3,60c-0.5,0.4-0.9,0.8-1.3,1.2c-0.4-0.4-0.8-0.9-1.3-1.2L55,57.4v-7.1c0-1.1-0.9-2-2-2  s-2,0.9-2,2v2.9v5.2c0,0.6,0.3,1.3,0.8,1.6l4.5,3.2c1,0.7,1.7,1.9,1.7,3.2c0,0,0,0.1-0.1,0.2c-0.1,0-0.2,0-0.2,0l-9-5.7l-0.3-0.2  V56.4z M41,52.3c0.2-0.5,0.5-0.8,0.9-1c0.2-0.1,0.6-0.2,1.1,0c0.8,0.4,1.2,1.4,0.9,2.4l-2.4,6.5c-1.7,0.5-3.2,1.5-4.4,2.8L41,52.3z   M33.1,62.2c0-0.1,0-0.2,0-0.4c0.1-1.4-0.5-2.8-1.5-3.8c-0.1-0.1-0.2-0.2-0.3-0.3l1.5-4c0.2-0.5,0.5-0.8,0.9-1  c0.2-0.1,0.6-0.2,1.1,0c0.8,0.4,1.2,1.4,0.9,2.4L33.1,62.2z M64.8,79.3l-0.4,0.1c-0.9,0.3-1.9-0.1-2.3-1C62,78.3,62,78,62,77.8  c0,0,0,0,0,0c0-0.7,0.4-1.3,1-1.6l1.7-0.6l3.8-1.4l1-0.4l5.9-2.2c0.4-0.2,0.8-0.5,1-0.8c0.3-0.5,0.4-1.1,0.2-1.7  c-0.4-1-1.5-1.6-2.6-1.2L73.8,68l-3.8,1.4l-3,1.1l-3.8,1.4l-1.8,0.7c0,0-0.1,0-0.1,0.1c-0.5,0.2-1,0.5-1.4,0.9  c-0.4-0.4-0.9-0.7-1.4-0.9c0,0-0.1,0-0.1-0.1l-1.8-0.7l-3.8-1.4l-3-1.1L46.2,68L46,67.9c-1-0.4-2.2,0.2-2.6,1.2  c-0.2,0.6-0.1,1.2,0.2,1.7c0.2,0.4,0.6,0.7,1,0.8l6,2.2l1,0.4l3.8,1.4l1.7,0.6c0.6,0.3,1,0.9,1,1.6c0,0,0,0,0,0c0,0.2,0,0.4-0.1,0.7  c-0.4,0.9-1.4,1.3-2.3,1l-0.4-0.1l-13.1-4.9c-2.4-0.9-3.8-3.3-3.5-5.8c0.3-2.7,2.7-4.7,5.4-4.7h0.3h1.6l1.5,0.9l3.5,2.2l2.7,1.7  l2.1,1.3c0.5,0.3,1,0.5,1.5,0.6c0.2,0,0.5,0.1,0.7,0.1c0.7,0,1.4-0.2,2-0.5c0.1,0,0.1-0.1,0.2-0.1c0.1,0,0.1,0.1,0.2,0.1  c0.6,0.3,1.3,0.5,2,0.5c0.2,0,0.5,0,0.7-0.1c0.5-0.1,1-0.3,1.5-0.6l2.1-1.3l2.7-1.7l3.5-2.2l1.5-0.9h1.6H76c2.7,0,5,2,5.4,4.7  c0.3,2.5-1.1,4.9-3.5,5.8L64.8,79.3z M88.4,58c-1,1-1.5,2.4-1.5,3.8c0,0.1,0,0.2,0,0.4l-2.6-7.1c-0.3-0.9,0.1-2,0.9-2.4  c0.4-0.2,0.8-0.1,1.1,0c0.4,0.2,0.7,0.5,0.9,1l1.5,4C88.6,57.9,88.5,57.9,88.4,58z"/></g></g><g id="SvgjsG6347" featureKey="text1" fill="#fff" transform="matrix(1.3056534119349863,0,0,1.3056534119349863,-2.6113068238699726,61.49184041327628)"><path d="M2 24 l4.4 -14.34 l0 -0.02 l1.42 0 l4.42 14.36 l-1.42 0 l-1.12 -3.68 l-6 0 l-1.14 3.68 l-0.56 0 z M3.86 19.78 l5.66 0 l-2.82 -9.2 z M16.259999999999998 24 l0 -14.36 l1.56 0 l6.88 11.68 l0 -11.68 l0.54 0 l0 14.36 l-0.54 0 l0 -0.02 l-7.9 -13.42 l0 13.44 l-0.54 0 z M29.240000000000002 24 l4.4 -14.34 l0 -0.02 l1.42 0 l4.42 14.36 l-1.42 0 l-1.12 -3.68 l-6 0 l-1.14 3.68 l-0.56 0 z M31.1 19.78 l5.66 0 l-2.82 -9.2 z  M54.1 9.64 l1.36 0 l5 13.62 l5.02 -13.62 l1.34 0 l0 14.38 l-1.34 0 l0 -12.82 l-4.7 12.8 l-1.48 0 l-4.66 -12.68 l0 12.68 l-0.54 0 l0 -14.36 z M76.44 24.22 c-3.44 0 -6.02 -3.28 -6.02 -7.32 s2.58 -7.32 6.02 -7.32 c3.42 0 6.02 3.28 6.02 7.32 s-2.6 7.32 -6.02 7.32 z M76.44 23.68 c2.68 0 4.66 -3.5 4.66 -6.78 c0 -3.3 -1.98 -6.78 -4.66 -6.78 c-2.7 0 -4.68 3.48 -4.68 6.78 c0 3.28 1.98 6.78 4.68 6.78 z M86.05999999999999 24 l0 -14.36 l1.56 0 l6.88 11.68 l0 -11.68 l0.54 0 l0 14.36 l-0.54 0 l0 -0.02 l-7.9 -13.42 l0 13.44 l-0.54 0 z M102.67999999999999 24 l0 -13.82 l-3.64 0 l0 -0.54 l8.64 0 l0 0.54 l-3.64 0 l0 13.82 l-1.36 0 z M111.67999999999999 24 l0 -14.36 l8.12 0 l0 0.54 l-6.76 0 l0 6.28 l5.42 0 l0 0.54 l-5.42 0 l0 6.46 l7.18 0 l0 0.54 l-8.54 0 z M124.22 24 l0 -14.36 l1.36 0 l0 14.36 l-1.36 0 z M129.6 24 l0 -14.36 l5.04 0 c1.96 0 3.84 1.5 3.84 3.68 c0 2.12 -1.88 3.74 -3.88 3.74 l4.94 6.94 l-1.48 0 l-4.96 -6.94 l-2.16 0 l0 6.94 l-1.34 0 z M130.94 16.52 l3.44 0 c1.52 0 2.74 -1.68 2.74 -3.2 s-1.22 -3.14 -2.74 -3.14 l-3.44 0 l0 6.34 z M149.16 24.22 c-3.44 0 -6.02 -3.28 -6.02 -7.32 s2.58 -7.32 6.02 -7.32 c3.42 0 6.02 3.28 6.02 7.32 s-2.6 7.32 -6.02 7.32 z M149.16 23.68 c2.68 0 4.66 -3.5 4.66 -6.78 c0 -3.3 -1.98 -6.78 -4.66 -6.78 c-2.7 0 -4.68 3.48 -4.68 6.78 c0 3.28 1.98 6.78 4.68 6.78 z"/></g><g id="SvgjsG6348" featureKey="text2" fill="#fff" transform="matrix(1,0,0,1,100,103)"><path d=""/></g><g id="SvgjsG6349" featureKey="text3" fill="#fff" transform="matrix(0.4434705525748361,0,0,0.4434705525748361,14.423488302799036,114.04424263719835)"><path d="M10.6 9.2 l2.74 0 l0 14 l-2.26 0 l-7.04 -9.1 l0 9.1 l-2.74 0 l0 -14 l2.26 0 l7.04 9.08 l0 -9.08 z M26.259999999999998 11.68 l-7.64 0 l0 3.2 l6.62 0 l0 2.4 l-6.62 0 l0 3.44 l7.62 0 l0 2.48 l-10.3 0 l0 -14 l10.32 0 l0 2.48 z M44.2 9.2 l2.88 0 l-4.24 14 l-2.9 0 l-2.76 -9.4 l-2.76 9.4 l-2.9 0 l-4.26 -14 l2.88 0 l2.88 10.14 l2.92 -10.14 l2.46 0 l2.92 10.14 z M58.04 15.86 c1.38 0.62 2.26 1.8 2.26 3.38 c0 2.4 -1.78 3.96 -4.76 3.96 l-7.06 0 l0 -14 l6.68 0 c2.74 0 4.6 1.52 4.62 3.74 c0 1.34 -0.66 2.34 -1.74 2.92 z M55.14 11.559999999999999 l-3.98 0 l0 3.46 l4.04 0 c1.14 0 1.9 -0.8 1.88 -1.76 c0 -0.98 -0.78 -1.72 -1.94 -1.7 z M55.519999999999996 20.82 c1.3 0 2.06 -0.82 2.06 -1.84 c0 -1 -0.74 -1.8 -2.04 -1.8 l-4.38 0 l0 3.64 l4.36 0 z M69.1 23.48 c-4.24 0 -7.36 -3.16 -7.36 -7.3 c0 -4.12 3.12 -7.26 7.36 -7.26 c4.22 0 7.34 3.14 7.34 7.26 c0 4.14 -3.12 7.3 -7.34 7.3 z M69.1 20.939999999999998 c2.76 0 4.58 -2.08 4.58 -4.76 c0 -2.62 -1.82 -4.72 -4.58 -4.72 c-2.78 0 -4.58 2.1 -4.58 4.72 c0 2.68 1.8 4.76 4.58 4.76 z M87.34 23.2 l-3.18 -4.9 l-2.98 0 l0 4.9 l-2.72 0 l0 -14 l6.82 0 c3.04 0 4.8 2.34 4.8 4.56 c0 1.84 -1.08 3.58 -3.06 4.26 l3.48 5.18 l-3.16 0 z M81.17999999999999 11.66 l0 4.24 l3.92 0 c1.42 0 2.32 -0.98 2.32 -2.14 c0 -1.12 -0.92 -2.1 -2.22 -2.1 l-4.02 0 z M101.66 9.2 l2.74 0 l0 14 l-2.26 0 l-7.04 -9.1 l0 9.1 l-2.74 0 l0 -14 l2.26 0 l7.04 9.08 l0 -9.08 z  M118.7 23.48 c-4.22 0 -7.36 -3.16 -7.36 -7.3 c0 -4.12 3.14 -7.26 7.3 -7.26 c3.78 0 6.14 2.32 6.78 4.54 l-2.68 0.66 c-0.46 -1.36 -1.96 -2.62 -4.08 -2.62 c-2.76 0 -4.52 2.14 -4.52 4.66 s1.76 4.74 4.52 4.74 c2.12 0 3.62 -1.22 4.08 -2.6 l2.66 0.68 c-0.64 2.24 -3 4.5 -6.7 4.5 z M137.64000000000001 23.2 l-1.14 -3.04 l-6.3 0 l-1.16 3.04 l-2.84 0 l5.36 -14 l3.56 0 l5.38 14 l-2.86 0 z M131.1 17.74 l4.48 0 l-2.24 -5.92 z M150.74 23.2 l-3.18 -4.9 l-2.98 0 l0 4.9 l-2.72 0 l0 -14 l6.82 0 c3.04 0 4.8 2.34 4.8 4.56 c0 1.84 -1.08 3.58 -3.06 4.26 l3.48 5.18 l-3.16 0 z M144.58 11.66 l0 4.24 l3.92 0 c1.42 0 2.32 -0.98 2.32 -2.14 c0 -1.12 -0.92 -2.1 -2.22 -2.1 l-4.02 0 z M166.08 11.68 l-7.64 0 l0 3.2 l6.62 0 l0 2.4 l-6.62 0 l0 3.44 l7.62 0 l0 2.48 l-10.3 0 l0 -14 l10.32 0 l0 2.48 z  M178.92000000000002 23.48 c-3.42 0 -5.68 -2.06 -6.46 -4.24 l2.62 -0.8 c0.56 1.46 1.98 2.62 4 2.62 c1.64 0 2.66 -0.84 2.66 -1.76 c0 -0.74 -0.5 -1.24 -1.84 -1.68 l-3.58 -1.12 c-1.84 -0.58 -3.18 -1.76 -3.16 -3.56 c-0.02 -2.18 2.1 -4.02 5.02 -4.02 c3.02 0 5.26 1.66 6.02 3.6 l-2.54 0.74 c-0.58 -1.14 -1.88 -1.92 -3.46 -1.92 c-1.38 0 -2.26 0.7 -2.26 1.52 c0 0.62 0.42 1.04 1.34 1.32 l3.48 1.12 c2.14 0.66 3.76 1.56 3.76 3.84 c0 2.4 -2.24 4.34 -5.6 4.34 z M193.12 9.2 c3.08 0 4.86 2.54 4.86 4.86 c0 2.36 -1.76 4.86 -4.98 4.86 l-3.72 0 l0 4.28 l-2.72 0 l0 -14 l6.56 0 z M192.92 16.48 c1.48 0 2.4 -1.18 2.4 -2.4 c0 -1.24 -0.94 -2.4 -2.28 -2.4 l-3.76 0 l0 4.8 l3.64 0 z M210 11.68 l-7.64 0 l0 3.2 l6.62 0 l0 2.4 l-6.62 0 l0 3.44 l7.62 0 l0 2.48 l-10.3 0 l0 -14 l10.32 0 l0 2.48 z M218.98000000000002 23.48 c-4.22 0 -7.36 -3.16 -7.36 -7.3 c0 -4.12 3.14 -7.26 7.3 -7.26 c3.78 0 6.14 2.32 6.78 4.54 l-2.68 0.66 c-0.46 -1.36 -1.96 -2.62 -4.08 -2.62 c-2.76 0 -4.52 2.14 -4.52 4.66 s1.76 4.74 4.52 4.74 c2.12 0 3.62 -1.22 4.08 -2.6 l2.66 0.68 c-0.64 2.24 -3 4.5 -6.7 4.5 z M227.70000000000002 23.2 l0 -14 l2.78 0 l0 14 l-2.78 0 z M243.3 23.2 l-1.14 -3.04 l-6.3 0 l-1.16 3.04 l-2.84 0 l5.36 -14 l3.56 0 l5.38 14 l-2.86 0 z M236.76 17.74 l4.48 0 l-2.24 -5.92 z M250.26 20.68 l6.98 0 l0 2.52 l-9.72 0 l0 -14 l2.74 0 l0 11.48 z M259 23.2 l0 -14 l2.78 0 l0 14 l-2.78 0 z M270.09999999999997 23.48 c-3.42 0 -5.68 -2.06 -6.46 -4.24 l2.62 -0.8 c0.56 1.46 1.98 2.62 4 2.62 c1.64 0 2.66 -0.84 2.66 -1.76 c0 -0.74 -0.5 -1.24 -1.84 -1.68 l-3.58 -1.12 c-1.84 -0.58 -3.18 -1.76 -3.16 -3.56 c-0.02 -2.18 2.1 -4.02 5.02 -4.02 c3.02 0 5.26 1.66 6.02 3.6 l-2.54 0.74 c-0.58 -1.14 -1.88 -1.92 -3.46 -1.92 c-1.38 0 -2.26 0.7 -2.26 1.52 c0 0.62 0.42 1.04 1.34 1.32 l3.48 1.12 c2.14 0.66 3.76 1.56 3.76 3.84 c0 2.4 -2.24 4.34 -5.6 4.34 z M288.88 9.2 l0 2.48 l-4.7 0 l0 11.52 l-2.74 0 l0 -11.52 l-4.7 0 l0 -2.48 l12.14 0 z  M308.34000000000003 23.2 l-3.22 0 l-1.24 -1.32 c-1.1 0.96 -2.52 1.6 -4.18 1.6 c-2.42 0 -4.5 -1.6 -4.5 -4.1 c0 -1.52 0.84 -3.02 2.58 -4.04 c-0.64 -0.76 -1.08 -1.54 -1.08 -2.54 c0 -2.48 1.82 -3.88 4.4 -3.88 c2.32 0 3.92 1.56 4.2 3.28 l-2.36 0.68 c-0.24 -0.98 -0.9 -1.62 -1.9 -1.62 c-1.02 0 -1.74 0.66 -1.74 1.58 c0 0.7 0.54 1.28 0.94 1.7 l3.5 3.74 c0.38 -0.68 0.66 -1.42 0.82 -2.14 l2.32 0.66 c-0.2 1 -0.68 2.2 -1.42 3.32 z M299.98 21.08 c0.82 0 1.6 -0.36 2.28 -0.92 l-2.96 -3.14 c-1 0.62 -1.46 1.3 -1.46 2.16 c0 1 0.82 1.9 2.14 1.9 z  M320.74 9.2 c4.08 0 6.7 2.88 6.7 7 c0 4.04 -2.58 7 -6.7 7 l-6.08 0 l0 -14 l6.08 0 z M320.68 20.72 c2.4 0 4 -1.88 4 -4.58 c0 -2.66 -1.6 -4.48 -4 -4.48 l-3.3 0 l0 9.06 l3.3 0 z M336.24 23.48 c-4.24 0 -7.36 -3.16 -7.36 -7.3 c0 -4.12 3.12 -7.26 7.36 -7.26 c4.22 0 7.34 3.14 7.34 7.26 c0 4.14 -3.12 7.3 -7.34 7.3 z M336.24 20.939999999999998 c2.76 0 4.58 -2.08 4.58 -4.76 c0 -2.62 -1.82 -4.72 -4.58 -4.72 c-2.78 0 -4.58 2.1 -4.58 4.72 c0 2.68 1.8 4.76 4.58 4.76 z M354.84000000000003 9.2 l2.76 0 l0 8.26 c0 3.56 -2.16 6.02 -6.06 6.02 c-3.92 0 -6.06 -2.46 -6.06 -6.02 l0 -8.26 l2.78 0 l0 8.22 c0 2.06 1.1 3.54 3.28 3.54 c2.2 0 3.3 -1.48 3.3 -3.54 l0 -8.22 z M362.82000000000005 20.68 l6.98 0 l0 2.52 l-9.72 0 l0 -14 l2.74 0 l0 11.48 z M381.78000000000003 23.2 l-1.14 -3.04 l-6.3 0 l-1.16 3.04 l-2.84 0 l5.36 -14 l3.56 0 l5.38 14 l-2.86 0 z M375.24000000000007 17.74 l4.48 0 l-2.24 -5.92 z "/></g>
			</g>
		</svg>
	